<?xml version="1.0" encoding="utf-8"?>
<!-- Generator: Adobe Illustrator 23.0.3, SVG Export Plug-In . SVG Version: 6.00 Build 0)  -->
<svg version="1.1" id="Layer_1" xmlns="http://www.w3.org/2000/svg" xmlns:xlink="http://www.w3.org/1999/xlink" x="0px" y="0px"
	 viewBox="0 0 767.2 869.7" style="enable-background:new 0 0 767.2 869.7;" xml:space="preserve">
<style type="text/css">
	.st0{display:none;}
	.st1{display:inline;fill:#FFFFFF;}
	.st2{font-family:'Georgia-BoldItalic';}
	.st3{font-size:186px;}
	.st4{letter-spacing:6;}
	.st5{font-family:'Georgia';}
	.st6{font-size:119px;}
	.st7{fill:#007760;}
	.st8{fill:#00D8B2;}
	.st9{fill:url(#SVGID_1_);}
	.st10{fill:url(#SVGID_2_);}
	.st11{fill:url(#SVGID_3_);}
	.st12{fill:url(#SVGID_4_);}
</style>
<rect class="st0" width="1888.3" height="869.7"/>
<g class="st0">
	<text transform="matrix(1 0 0 1 722.2307 448.1563)" class="st1 st2 st3 st4">TerraMar</text>
	<text transform="matrix(1 0 0 1 734.232 565.168)" class="st1 st5 st6">Import</text>
	<text transform="matrix(1 0 0 1 1174.2745 565.168)" class="st1 st5 st6">Export</text>
	<text transform="matrix(1 0 0 1 1118.2703 565.168)" class="st1 st5" style="font-size:78px;">&amp;</text>
</g>
<g>
	<path class="st7" d="M240.6,645.2c63.6-5.4,158.2-59,236.1-129.1c-16.4,1.1-33.9,3.3-52.2,6.8c-113,21.8-227.7,92.8-206.3,116.8
		c0.4,0.4,0.8,0.8,1.2,1.1c1.1,0.9,2.1,1.8,3.3,2.8c-1.1-1-2.3-2-3.4-3.1C224.5,643.9,227.4,645,240.6,645.2z"/>
	<path class="st8" d="M262.8,673.6c8.5,5.4,13.2,8,22.5,12.5c0.9,0.4,1.8,0.9,2.8,1.3c-6.7-3.5-11.6-6-15.7-8.2
		C269.1,677.4,265.9,675.5,262.8,673.6z"/>
	<path class="st8" d="M246.4,662.8c0.1,0,0.1,0.1,0.1,0.1c-4.2-3.2-8.9-6.9-13.6-10.7C237.6,656,242.2,659.7,246.4,662.8z"/>
	<path class="st8" d="M302.9,693.9c4.4,1.8,8.9,3.7,12.8,5.1c-0.2-0.1-0.3-0.2-0.5-0.2c-1.5-0.5-3-1.1-4.6-1.7
		C308.1,696,305.5,695,302.9,693.9z"/>
	<path class="st7" d="M615.2,586.9c2.8-20.2-5.9-37.2-23.8-49.5c-23.7,26.2-50.9,50.5-78.9,71.9c26.5,4.7,38,18.6,30.3,35.2
		c-1.8,3.9-4,8-7.1,11.9C563.5,636.6,591.2,613,615.2,586.9z"/>
	<path class="st8" d="M667.9,536.8c2-5.2,4-10.8,6-16.8c1.1-3.6,2.2-7.4,3.4-11.8c0.2-0.6,0.3-1.2,0.5-1.8c0-0.2,0.1-0.4,0.1-0.6
		c-0.1,0.4-0.2,0.8-0.3,1.2C675,515.8,672,525.8,667.9,536.8z"/>
	<path class="st8" d="M141.9,517.6c0.1,0.3,0.2,0.6,0.3,0.8C142.1,518.1,142,517.8,141.9,517.6C141.9,517.6,141.9,517.6,141.9,517.6
		z"/>
	<path class="st8" d="M153.6,549c0.9,2.1,1.9,4.2,2.9,6.3c-3.2-7.5-6.6-15.4-9.8-23.9C149,537.7,151.4,543.7,153.6,549z"/>
	<path class="st7" d="M176.2,454.4c71.3-17.2,151.1-72.1,202.4-129.3c-105.8,20.3-206.3,63.4-240.3,103.1
		c-8.2,9.6-8.6,14.7-8.8,17.8C130.7,451.1,133.5,462.8,176.2,454.4z"/>
	<path class="st8" d="M630.4,604.7c0.1-0.2,0.2-0.3,0.4-0.5l1.4-1.9c-0.3,0.3-0.5,0.7-0.8,1.1C631,603.9,630.8,604.3,630.4,604.7z"
		/>
	<path class="st7" d="M517,313.9c-17.1,35.1-47,73.5-89.4,112.3c45.8-6.5,91.4-7.4,131.1,0.4c23.1-31.7,40.3-64.1,48.4-94.9
		C581.2,321.2,550.3,315.5,517,313.9z"/>
	<path class="st8" d="M645,583.2c3.8-6.1,6.8-11.5,12-21.5c-4.7,8.7-7.6,14-10.3,18.7C646.2,581.4,645.6,582.3,645,583.2z"/>
	<path class="st7" d="M663.9,519.1c12.8-24.3,21-49.5,22.5-74.8c0,0.2,0,0.3,0,0.5c-0.5,8.6-1.3,19.8-2.9,31.9
		c1.6-10.2,2.7-21.3,3-34.7c-0.7-23.9-6.7-43.9-16.8-60.4c-2,28.8-11.8,57.5-27.1,85.2C656.6,481.6,663.7,499.3,663.9,519.1z"/>
	<path class="st7" d="M533.3,235.6c27.6,4.8,52.8,13.1,74.1,25.7c-5.2-16.3-14.6-31.5-29-45c-3.5-3.3-8.3-7.1-12.5-10.1
		c-1.2-0.8-2.5-1.7-3.8-2.5c-19.6-11.5-41.5-19.3-64.6-24C518.2,193.4,530.2,212.6,533.3,235.6z"/>
	<path class="st8" d="M189.7,261.7c-2.9,3.6-5.7,7.2-8,10.4c-0.6,0.9-1.2,1.8-1.8,2.7c1.4-2,2.9-4.1,4.4-6.1
		C186,266.4,187.9,264.1,189.7,261.7z"/>
	<path class="st7" d="M407.7,181.2c-3.6-2-7.4-3.6-11.4-4.9c-33.9,3.6-67.1,11.3-96.8,21.1c-1.5,2.6-2,5.1-1.3,7.5
		c-22.5,11.4-37.9,13.3-43.3,10c-25.4,11.8-45.5,24.7-57,36.6c-14.7,18.9,3.4,18.4,11.9,17.3c13.6-1.8,27.9-8.1,35.6-11.5
		c-6.7,8.7-13,17.7-18.8,27.1c56-26.3,131.8-47,205-52.6C434.7,210.3,427.8,192.3,407.7,181.2z"/>
	<path class="st8" d="M161.8,304.4c-0.3,0.7-0.7,1.3-1,2c3.7-6.9,6.2-11.4,8.6-15.5C167,294.8,164.8,298.8,161.8,304.4z"/>
	<path class="st8" d="M637.5,278c-1-1.4-2-2.9-3.2-4.5c0,0,0-0.1-0.1-0.1c4.8,7.3,8.2,12.5,10.9,16.8
		C642.6,285.8,640,281.7,637.5,278z"/>
	<path class="st8" d="M148.8,332.6c-1.6,4.1-3.1,8.5-4.4,12.1c-0.5,1.4-1,3-1.6,4.7c3.4-9.6,5.6-15.5,7.4-20.1
		C149.7,330.4,149.2,331.5,148.8,332.6z"/>
	<path class="st8" d="M606.8,240.5c-0.6-0.6-1.3-1.3-2-2c-0.6-0.6-1.3-1.2-1.9-1.9c6.4,6.8,10.8,11.4,14.3,15.2
		C613.7,248,610.1,243.9,606.8,240.5z"/>
	<path class="st8" d="M571.9,210.3c-1-0.7-2-1.4-3.1-2.2c-0.8-0.6-1.6-1.1-2.5-1.7c7.8,5.8,13,9.6,17.2,12.9
		C579.8,216.4,575.6,213.1,571.9,210.3z"/>
	<path class="st8" d="M667.9,534.8c4.1-11,7.1-21,9.7-29.7c0.1-0.4,0.2-0.8,0.3-1.2c1.4-5.3,2.6-10.6,3.5-15.3
		c0.2-1.3,0.5-2.6,0.7-3.9c0.6-3.3,1.1-6.6,1.5-9.9c1.6-12.1,2.4-23.3,2.9-31.9c0-0.2,0-0.3,0-0.5c-1.6,25.4-9.8,50.6-22.5,74.8
		c-12.5,23.7-29.4,46.6-48.8,67.7c-24,26.2-51.7,49.8-79.6,69.4c-15.9,11.2-31.9,21.1-47.2,29.4c0.2-0.2,0.3-0.4,0.5-0.5
		c-31.3,17.1-63.9,25.9-95.7,26.9c0,0.5,0,1.2,0,2c1.4,1,5.4,0.5,8.7,0.9c1.5,0,2.9,0.1,4.3,0.1c-0.2,0-0.5,0-0.7,0c0.3,0,0.7,0,1,0
		c2.2,0,4.6,0,7.1-0.1c2.3,0,4.7-0.1,6.8-0.1c0.4,0,0.7,0,1.1,0c0.2,0,0.4,0,0.6,0c4-0.2,9.2-0.6,13.5-1c0.2,0,0.4,0,0.5-0.1
		c0.8-0.1,1.6-0.1,2.3-0.2c3.2-0.3,6.7-0.8,9.6-1.2c0.5-0.1,1-0.2,1.6-0.2c0.1,0,0.3,0,0.4-0.1c0,0,0.1,0,0.1,0
		c3-0.5,6.5-1,10.1-1.7c0.4-0.1,0.8-0.2,1.3-0.2c0.4-0.1,0.7-0.1,1-0.2c2.5-0.5,5-1,7.2-1.5c0.9-0.2,1.8-0.4,2.9-0.7
		c0.1,0,0.2,0,0.3-0.1c1-0.2,2-0.5,3.1-0.8c2.8-0.7,4.8-1.2,6.5-1.7c2.6-0.7,5.1-1.4,7.6-2.2c0.6-0.2,1.2-0.4,2-0.6
		c0.7-0.2,1.4-0.4,2-0.6c1.7-0.5,3.5-1.2,5.4-1.8c0.4-0.2,0.9-0.3,1.4-0.5c0.2-0.1,0.5-0.2,0.7-0.2c2.7-0.9,5.2-1.9,7.7-2.8
		c0.1,0,0.1,0,0.2-0.1c3.5-1.4,4.9-1.9,8.2-3.3c0.5-0.2,1-0.4,1.5-0.6c1.9-0.8,3.8-1.6,5.5-2.4c0.3-0.2,0.7-0.3,1.1-0.5l5.8-2.8
		c35.7-17.7,67.9-44,95.9-78.2c1.4-1.8,2.8-3.6,4.1-5.3c0.3-0.4,0.5-0.7,0.8-1.1l2.1-2.9c2.2-3.2,4.1-5.9,5.7-8.3
		c1.7-2.6,3.4-5.3,5-7.9c0.6-1,1.2-1.9,1.7-2.8c2.8-4.7,5.7-10,10.3-18.7C661.4,550.9,664.9,542.6,667.9,534.8z"/>
	<linearGradient id="SVGID_1_" gradientUnits="userSpaceOnUse" x1="393.09" y1="579.7464" x2="686.46" y2="579.7464">
		<stop  offset="6.060610e-03" style="stop-color:#24E44B"/>
		<stop  offset="0.1394" style="stop-color:#1FD14C"/>
		<stop  offset="0.6545" style="stop-color:#00BFB3"/>
		<stop  offset="1" style="stop-color:#00BF4D"/>
	</linearGradient>
	<path class="st9" d="M667.9,536.8c4.1-11,7.1-21,9.7-29.7c0.1-0.4,0.2-0.8,0.3-1.2c1.4-5.3,2.6-10.6,3.5-15.3
		c0.2-1.3,0.5-2.6,0.7-3.9c0.6-3.3,1.1-6.6,1.5-9.9c1.6-12.1,2.4-23.3,2.9-31.9c0-0.2,0-0.3,0-0.5c-1.6,25.4-9.8,50.6-22.5,74.8
		c-12.5,23.7-29.4,46.6-48.8,67.7c-24,26.2-51.7,49.8-79.6,69.4c-15.9,11.2-31.9,21.1-47.2,29.4c0.2-0.2,0.3-0.4,0.5-0.5
		c-31.3,17.1-63.9,25.9-95.7,26.9c2.2,1.2,4.3,2.4,8.7,2.9c1.5,0,2.9,0.1,4.3,0.1c-0.2,0-0.5,0-0.7,0c0.3,0,0.7,0,1,0
		c2.2,0,4.6,0,7.1-0.1c2.3,0,4.7-0.1,6.8-0.1c0.4,0,0.7,0,1.1,0c0.2,0,0.4,0,0.6,0c4-0.2,9.2-0.6,13.5-1c0.2,0,0.4,0,0.5-0.1
		c0.8-0.1,1.6-0.1,2.3-0.2c3.2-0.3,6.7-0.8,9.6-1.2c0.5-0.1,1-0.2,1.6-0.2c0.1,0,0.3,0,0.4-0.1c0,0,0.1,0,0.1,0
		c3-0.5,6.5-1,10.1-1.7c0.4-0.1,0.8-0.2,1.3-0.2c0.4-0.1,0.7-0.1,1-0.2c2.5-0.5,5-1,7.2-1.5c0.9-0.2,1.8-0.4,2.9-0.7
		c0.1,0,0.2,0,0.3-0.1c1-0.2,2-0.5,3.1-0.8c2.8-0.7,4.8-1.2,6.5-1.7c2.6-0.7,5.1-1.4,7.6-2.2c0.6-0.2,1.2-0.4,2-0.6
		c0.7-0.2,1.4-0.4,2-0.6c1.7-0.5,3.5-1.2,5.4-1.8c0.4-0.2,0.9-0.3,1.4-0.5c0.2-0.1,0.5-0.2,0.7-0.2c2.7-0.9,5.2-1.9,7.7-2.8
		c0.1,0,0.1,0,0.2-0.1c3.5-1.4,4.9-1.9,8.2-3.3c0.5-0.2,1-0.4,1.5-0.6c1.9-0.8,3.8-1.6,5.5-2.4c0.3-0.2,0.7-0.3,1.1-0.5l5.8-2.8
		c35.7-17.7,67.9-44,95.9-78.2c1.4-1.8,2.8-3.6,4.1-5.3c0.3-0.4,0.5-0.7,0.8-1.1l2.1-2.9c2.2-3.2,4.1-5.9,5.7-8.3
		c1.7-2.6,3.4-5.3,5-7.9c0.6-1,1.2-1.9,1.7-2.8c2.8-4.7,5.7-10,10.3-18.7C661.4,552.9,664.9,544.6,667.9,536.8z"/>
	<path class="st8" d="M591.3,535.4c20.2-22.3,37.9-46.1,51.4-70.5c15.3-27.7,25.1-56.5,27.1-85.2c1.5-21.8-1.5-43.5-10.1-65
		l-0.2-0.4c-3.1-6.4-7.4-14.4-11.2-21.1c-0.9-1.5-2-3.1-3.1-5c-2.7-4.3-6.2-9.5-10.9-16.8c0,0,0,0,0,0c-3-4.1-5.3-7.2-7.4-10
		c-2.2-2.8-4.5-5.5-6.6-8c-1-1.1-2-2.3-3.2-3.5c-3.5-3.8-7.9-8.5-14.3-15.2c-0.1-0.1-0.2-0.2-0.3-0.4c-3.6-3.5-6.4-6.1-9-8.5
		c-3-2.6-6.2-5.2-9-7.6c-0.3-0.3-0.7-0.5-1-0.8c-4.2-3.3-9.3-7.1-17.2-12.9c-0.4-0.3-0.9-0.6-1.3-1l-1.2-0.8c0.7,0.5,1.4,1,2.1,1.5
		c4.2,3.1,9,6.9,12.5,10.1c14.4,13.5,23.8,28.7,29,45c6.9,21.8,6.2,45.6-0.3,70.4c-8.1,30.8-25.3,63.2-48.4,94.9
		c-22.7,31.1-51,61.6-82,89.5c-77.8,70.1-172.4,123.7-236.1,129.1c-13.3-0.2-16.2-1.3-21.4-4.6c1.1,1,2.3,2,3.4,3.1
		c0.2,0.2,0.4,0.4,0.7,0.6c3.1,2.6,6.3,5.3,9.6,8c4.7,3.8,9.4,7.5,13.6,10.7c0.4,0.3,0.8,0.6,1.1,0.9c2.6,1.8,4.8,3.3,6.9,4.7
		c2.6,1.6,5.3,3.3,8.2,5.1c3.1,1.9,6.4,3.8,9.6,5.7c4.1,2.2,9,4.7,15.7,8.2c0.7,0.3,1.4,0.7,2.1,1.1c1,0.5,2.1,1,3.3,1.4
		c3,1.3,6.2,2.7,9.5,4c2.6,1.1,5.3,2.1,7.8,3.1c1.5,0.6,3.1,1.2,4.6,1.7c0.4,0.1,0.7,0.3,1.1,0.4l0.8,0.2c0.6,0.2,1.2,0.5,1.8,0.8
		c34,4.8,116.9-32.3,193.6-90.9C540.4,585.8,567.7,561.5,591.3,535.4z"/>
	<linearGradient id="SVGID_2_" gradientUnits="userSpaceOnUse" x1="219.2298" y1="452.5896" x2="670.1412" y2="452.5896">
		<stop  offset="6.060610e-03" style="stop-color:#24E44B"/>
		<stop  offset="0.1394" style="stop-color:#1FD14C"/>
		<stop  offset="0.6545" style="stop-color:#00BFB3"/>
		<stop  offset="1" style="stop-color:#00BF4D"/>
	</linearGradient>
	<path class="st10" d="M591.3,537.4c20.2-22.3,37.9-46.1,51.4-70.5c15.3-27.7,25.1-56.5,27.1-85.2c1.5-21.8-1.5-43.5-10.1-65
		l-0.2-0.4c-3.1-6.4-7.4-14.4-11.2-21.1c-0.9-1.5-2-3.1-3.1-5c-2.7-4.3-6.2-9.5-10.9-16.8c0,0,0,0,0,0c-3-4.1-5.3-7.2-7.4-10
		c-2.2-2.8-4.5-5.5-6.6-8c-1-1.1-2-2.3-3.2-3.5c-3.5-3.8-7.9-8.5-14.3-15.2c-0.1-0.1-0.2-0.2-0.3-0.4c-3.6-3.5-6.4-6.1-9-8.5
		c-3-2.6-6.2-5.2-9-7.6c-0.3-0.3-0.7-0.5-1-0.8c-4.2-3.3-9.3-7.1-17.2-12.9c-0.4-0.3-0.9-0.6-1.3-1l-1.2-0.8c0.7,0.5,1.4,1,2.1,1.5
		c4.2,3.1,9,6.9,12.5,10.1c14.4,13.5,23.8,28.7,29,45c6.9,21.8,6.2,45.6-0.3,70.4c-8.1,30.8-25.3,63.2-48.4,94.9
		c-22.7,31.1-51,61.6-82,89.5c-77.8,70.1-172.4,123.7-236.1,129.1c-13.3-0.2-16.2-1.3-21.4-4.6c1.1,1,2.3,2,3.4,3.1
		c0.2,0.2,0.4,0.4,0.7,0.6c3.1,2.6,6.3,5.3,9.6,8c4.7,3.8,9.4,7.5,13.6,10.7c0.4,0.3,0.8,0.6,1.1,0.9c2.6,1.8,4.8,3.3,6.9,4.7
		c2.6,1.6,5.3,3.3,8.2,5.1c3.1,1.9,6.4,3.8,9.6,5.7c4.1,2.2,9,4.7,15.7,8.2c0.7,0.3,1.4,0.7,2.1,1.1c1,0.5,2.1,1,3.3,1.4
		c3,1.3,6.2,2.7,9.5,4c2.6,1.1,5.3,2.1,7.8,3.1c1.5,0.6,3.1,1.2,4.6,1.7c0.4,0.1,0.7,0.3,1.1,0.4l0.8,0.2c0.6,0.2,1.2,0.5,1.8,0.8
		c34,4.8,116.9-32.3,193.6-90.9C540.4,587.8,567.7,563.5,591.3,537.4z"/>
	<path class="st8" d="M247.4,256.4c-7.7,3.4-22,9.7-35.6,11.5c-8.5,1.1-26.6,1.6-11.9-17.3c-2.5,3-5.4,6.6-8.2,10.2
		c-1.9,2.4-3.7,4.7-5.4,7c-1.5,2-3,4.1-4.4,6.1c-0.5,0.7-1,1.4-1.5,2.1c-3.9,5.7-6.4,9.6-9,14c-2.4,4.1-4.9,8.7-8.6,15.5
		c-0.6,1.1-1.2,2.2-1.9,3.4c-1.6,3.3-2.9,6-4,8.3c-1.3,2.8-2.5,5.7-3.8,8.7c-0.3,0.8-0.6,1.5-0.9,2.4c-1.8,4.6-3.9,10.6-7.4,20.1
		c-3.3,15.1,13.5,17.9,49.9,8.4c44.4-11.7,76.3-26.7,79.7-66.9C275.4,278.9,274.6,245.6,247.4,256.4z"/>
	<linearGradient id="SVGID_3_" gradientUnits="userSpaceOnUse" x1="142.4198" y1="307.4002" x2="272.6367" y2="307.4002">
		<stop  offset="6.060610e-03" style="stop-color:#24E44B"/>
		<stop  offset="0.1888" style="stop-color:#1FD14C"/>
		<stop  offset="0.6545" style="stop-color:#00BFB3"/>
		<stop  offset="1" style="stop-color:#00BF4D"/>
	</linearGradient>
	<path class="st11" d="M245.4,257.4c-7.7,3.4-22,9.7-35.6,11.5c-8.5,1.1-26.6,1.6-11.9-17.3c-2.5,3-5.4,6.6-8.2,10.2
		c-1.9,2.4-3.7,4.7-5.4,7c-1.5,2-3,4.1-4.4,6.1c-0.5,0.7-1,1.4-1.5,2.1c-3.9,5.7-6.4,9.6-9,14c-2.4,4.1-4.9,8.7-8.6,15.5
		c-0.6,1.1-1.2,2.2-1.9,3.4c-1.6,3.3-2.9,6-4,8.3c-1.3,2.8-2.5,5.7-3.8,8.7c-0.3,0.8-0.6,1.5-0.9,2.4c-1.8,4.6-3.9,10.6-7.4,20.1
		c-3.3,15.1,13.5,17.9,49.9,8.4c44.4-11.7,76.3-26.7,79.7-66.9C273.4,279.9,272.6,246.6,245.4,257.4z"/>
	<path class="st8" d="M517,311.9c14-28.8,19.5-55.4,16.3-78.3c-3.2-23-15.1-42.1-35.9-55.9c-18.4-12.2-43.6-20.2-75.8-22.8
		c-0.3,0-0.6,0-0.9-0.1c0.2,0,0.4,0,0.6,0c-0.2,0-0.5,0-0.7,0c0,0,0,0,0,0c-3.9-0.1-8.4-0.2-13-0.2c-4.8,0-9.6,0-13.7,0.1
		c0,0,0,0,0,0c-0.3,0-0.6,0-0.9,0.1c-0.6,0-1.2,0.1-1.7,0.1c-1.7,0.1-3.6,0.2-5.5,0.3c-3.7,0.3-7.1,0.7-13.8,1.5
		c-1.4,0.1-2.7,0.3-3.9,0.4c-0.6,0.1-1.2,0.2-1.9,0.3c-0.1,0-0.1,0-0.2,0c-0.1,0-0.2,0-0.2,0c-4.7,0.7-6.9,1.1-11.1,1.9
		c-0.1,0-0.3,0.1-0.4,0.1c-3.1,0.6-7,1.4-9.9,2.1c-0.1,0-0.1,0-0.2,0c-0.1,0-0.3,0.1-0.5,0.1c0,0-0.1,0-0.1,0
		c-1.9,0.4-3.2,0.8-4.5,1.1c-1.2,0.3-2.5,0.7-4.2,1.1c-0.4,0.1-0.8,0.2-1.2,0.3c-0.6,0.1-1.1,0.3-1.6,0.4c-2.2,0.6-5,1.4-8.1,2.4
		c0,0-0.1,0-0.1,0c-2.2,0.7-4.4,1.4-6.4,2.1c-0.6,0.2-1.4,0.5-2.2,0.8c-0.3,0.1-0.5,0.2-0.8,0.3c-3.1,1.1-5.8,2.1-8,2.9
		c0,0-0.1,0-0.1,0.1c-0.1,0-0.2,0.1-0.3,0.1c-3.3,1.3-4.8,1.9-7.6,3.1c-0.2,0.1-0.5,0.2-0.7,0.3c-2.3,1-5.2,2.3-7.5,3.3c0,0,0,0,0,0
		c0,0,0,0,0,0c-0.5,0.2-1,0.4-1.5,0.7c-0.9,0.4-1.8,0.8-2.6,1.3c-0.3,0.2-0.7,0.3-1,0.5c-19.6,9.8-30.3,19.4-32.2,25
		c-0.8,2.4-0.1,4.3,1.8,5.5c5.4,3.3,20.9,1.4,43.3-10c-0.7-2.4-0.2-5,1.3-7.5c9.6-16.4,60.1-33,96.8-21.1c4,1.3,7.8,2.9,11.4,4.9
		c20.1,11.2,26.9,29.1,23.9,50.7c-3.9,27.5-23.9,60.7-53.1,93.3c-51.3,57.2-131.1,112.1-202.4,129.3c-42.7,8.4-45.4-3.4-46.6-8.4
		c0.3,6.1,0.7,11.9,1.2,17.4c0.1,0.9,0.2,1.7,0.3,2.6c0,0.2,0,0.3,0.1,0.5c0.1,1.2,0.3,2.5,0.4,3.8c1.4,11.2,4.2,25.6,7.4,37.4
		c0.9,3.4,1.9,6.7,2.9,9.9c0.1,0.3,0.2,0.6,0.3,0.9c1.5,4.5,3,8.9,4.6,13.1c3.2,8.5,6.5,16.3,9.8,23.9l1.9,3.8
		c6.5,8.9,20.6,7.5,35.4,6.1c-0.4-1.2-0.9-2.4-1.3-3.6c0.4,1.2,0.9,2.4,1.3,3.6c74.3-12.3,162-77.6,216.6-124
		c6-5.1,11.7-10.1,17.3-15.2C470.1,385.3,499.9,347,517,311.9z"/>
	<linearGradient id="SVGID_4_" gradientUnits="userSpaceOnUse" x1="129.57" y1="361.4787" x2="534.2328" y2="361.4787">
		<stop  offset="6.060610e-03" style="stop-color:#24E44B"/>
		<stop  offset="0.1394" style="stop-color:#1FD14C"/>
		<stop  offset="0.6545" style="stop-color:#00BFB3"/>
		<stop  offset="1" style="stop-color:#00BF4D"/>
	</linearGradient>
	<path class="st12" d="M517,313.9c14-28.8,19.5-55.4,16.3-78.3c-3.2-23-15.1-42.1-35.9-55.9c-18.4-12.2-43.6-20.2-75.8-22.8
		c-0.3,0-0.6,0-0.9-0.1c0.2,0,0.4,0,0.6,0c-0.2,0-0.5,0-0.7,0c0,0,0,0,0,0c-3.9-0.1-8.4-0.2-13-0.2c-4.8,0-9.6,0-13.7,0.1
		c0,0,0,0,0,0c-0.3,0-0.6,0-0.9,0.1c-0.6,0-1.2,0.1-1.7,0.1c-1.7,0.1-3.6,0.2-5.5,0.3c-3.7,0.3-7.1,0.7-13.8,1.5
		c-1.4,0.1-2.7,0.3-3.9,0.4c-0.6,0.1-1.2,0.2-1.9,0.3c-0.1,0-0.1,0-0.2,0c-0.1,0-0.2,0-0.2,0c-4.7,0.7-6.9,1.1-11.1,1.9
		c-0.1,0-0.3,0.1-0.4,0.1c-3.1,0.6-7,1.4-9.9,2.1c-0.1,0-0.1,0-0.2,0c-0.1,0-0.3,0.1-0.5,0.1c0,0-0.1,0-0.1,0
		c-1.9,0.4-3.2,0.8-4.5,1.1c-1.2,0.3-2.5,0.7-4.2,1.1c-0.4,0.1-0.8,0.2-1.2,0.3c-0.6,0.1-1.1,0.3-1.6,0.4c-2.2,0.6-5,1.4-8.1,2.4
		c0,0-0.1,0-0.1,0c-2.2,0.7-4.4,1.4-6.4,2.1c-0.6,0.2-1.4,0.5-2.2,0.8c-0.3,0.1-0.5,0.2-0.8,0.3c-3.1,1.1-5.8,2.1-8,2.9
		c0,0-0.1,0-0.1,0.1c-0.1,0-0.2,0.1-0.3,0.1c-3.3,1.3-4.8,1.9-7.6,3.1c-0.2,0.1-0.5,0.2-0.7,0.3c-2.3,1-5.2,2.3-7.5,3.3c0,0,0,0,0,0
		c0,0,0,0,0,0c-0.5,0.2-1,0.4-1.5,0.7c-0.9,0.4-1.8,0.8-2.6,1.3c-0.3,0.2-0.7,0.3-1,0.5c-19.6,9.8-30.3,19.4-32.2,25
		c-0.8,2.4-0.1,4.3,1.8,5.5c5.4,3.3,20.9,1.4,43.3-10c-0.7-2.4-0.2-5,1.3-7.5c9.6-16.4,60.1-33,96.8-21.1c4,1.3,7.8,2.9,11.4,4.9
		c20.1,11.2,26.9,29.1,23.9,50.7c-3.9,27.5-23.9,60.7-53.1,93.3c-51.3,57.2-131.1,112.1-202.4,129.3c-42.7,8.4-45.4-3.4-46.6-8.4
		c0.3,6.1,0.7,11.9,1.2,17.4c0.1,0.9,0.2,1.7,0.3,2.6c0,0.2,0,0.3,0.1,0.5c0.1,1.2,0.3,2.5,0.4,3.8c1.4,11.2,4.2,25.6,7.4,37.4
		c0.9,3.4,1.9,6.7,2.9,9.9c0.1,0.3,0.2,0.6,0.3,0.9c1.5,4.5,3,8.9,4.6,13.1c3.2,8.5,6.5,16.3,9.8,23.9l1.9,3.8
		c6.5,8.9,20.6,7.5,35.4,6.1c-0.4-1.2-0.9-2.4-1.3-3.6c0.4,1.2,0.9,2.4,1.3,3.6c74.3-12.3,162-77.6,216.6-124
		c6-5.1,11.7-10.1,17.3-15.2C470.1,387.3,499.9,349,517,313.9z"/>
</g>
</svg>
