<?xml version="1.0" encoding="utf-8"?>
<!-- Generator: Adobe Illustrator 23.0.3, SVG Export Plug-In . SVG Version: 6.00 Build 0)  -->
<svg version="1.1" id="Layer_1" xmlns="http://www.w3.org/2000/svg" xmlns:xlink="http://www.w3.org/1999/xlink" x="0px" y="0px"
	 viewBox="0 0 1888.35 869.74" style="enable-background:new 0 0 1888.35 869.74;" xml:space="preserve">
<style type="text/css">
	.st0{display:none;}
	.st1{fill:#134577;}
	.st2{fill:url(#SVGID_1_);}
	.st3{fill:url(#SVGID_2_);}
	.st4{fill:url(#SVGID_3_);}
	.st5{fill:url(#SVGID_4_);}
	.st6{fill:url(#SVGID_5_);}
	.st7{fill:url(#SVGID_6_);}
	.st8{fill:url(#SVGID_7_);}
	.st9{fill:url(#SVGID_8_);}
	.st10{fill:#FFFFFF;}
	.st11{font-family:'Georgia-BoldItalic';}
	.st12{font-size:186px;}
	.st13{letter-spacing:7;}
	.st14{font-family:'Georgia';}
	.st15{font-size:119px;}
	.st16{font-size:78px;}
</style>
<rect class="st0" width="1888.35" height="869.74"/>
<g>
	<path class="st1" d="M234.65,645.19c63.63-5.4,158.23-59.04,236.07-129.1c-16.38,1.06-33.85,3.3-52.24,6.85
		c-112.98,21.82-227.67,92.82-206.33,116.79c0.4,0.38,0.81,0.76,1.21,1.14c1.05,0.91,2.14,1.83,3.27,2.79
		c-1.13-1.02-2.26-2.04-3.39-3.06C218.48,643.9,221.36,644.99,234.65,645.19z"/>
	<path class="st1" d="M256.75,673.57c8.48,5.37,13.23,8,22.48,12.55c0.9,0.43,1.83,0.87,2.79,1.31c-6.69-3.45-11.58-5.99-15.66-8.19
		C263.1,677.38,259.87,675.46,256.75,673.57z"/>
	<path class="st1" d="M240.4,662.85c0.05,0.04,0.1,0.07,0.15,0.1c-4.21-3.23-8.92-6.94-13.61-10.74
		C231.56,655.99,236.21,659.67,240.4,662.85z"/>
	<path class="st1" d="M296.87,693.91c4.44,1.85,8.9,3.66,12.78,5.09c-0.16-0.08-0.3-0.16-0.45-0.24c-1.48-0.55-3.01-1.14-4.56-1.74
		C302.13,696.02,299.5,694.98,296.87,693.91z"/>
	<path class="st1" d="M609.16,586.86c2.8-20.25-5.93-37.19-23.82-49.5c-23.7,26.17-50.91,50.45-78.94,71.87
		c26.46,4.66,37.97,18.56,30.27,35.19c-1.79,3.87-4.01,7.95-7.11,11.86C557.48,636.65,585.21,613.04,609.16,586.86z"/>
	<path class="st1" d="M661.86,536.78c2.04-5.21,4.05-10.77,5.96-16.8c1.09-3.56,2.22-7.43,3.44-11.77c0.16-0.59,0.32-1.16,0.47-1.76
		c0.04-0.2,0.09-0.4,0.13-0.59c-0.11,0.41-0.21,0.82-0.32,1.23C668.96,515.83,665.99,525.78,661.86,536.78z"/>
	<path class="st1" d="M135.89,517.61c0.09,0.28,0.18,0.56,0.27,0.84c-0.1-0.3-0.19-0.6-0.29-0.91
		C135.88,517.57,135.88,517.59,135.89,517.61z"/>
	<path class="st1" d="M147.64,549.04c0.93,2.1,1.87,4.21,2.87,6.34c-3.23-7.55-6.57-15.39-9.77-23.88
		C143.03,537.68,145.43,543.72,147.64,549.04z"/>
	<path class="st1" d="M170.18,454.44c71.3-17.19,151.09-72.11,202.39-129.28c-105.83,20.31-206.31,63.38-240.26,103.12
		c-8.22,9.62-8.56,14.71-8.75,17.75C124.73,451.06,127.51,462.81,170.18,454.44z"/>
	<path class="st1" d="M624.42,604.75c0.12-0.15,0.24-0.31,0.36-0.47l1.41-1.91c-0.26,0.35-0.54,0.71-0.81,1.07
		C625.05,603.88,624.75,604.32,624.42,604.75z"/>
	<path class="st1" d="M511.04,313.86c-17.11,35.11-46.95,73.48-89.43,112.28c45.84-6.51,91.4-7.35,131.08,0.43
		c23.1-31.71,40.31-64.05,48.43-94.88C575.15,321.16,544.33,315.54,511.04,313.86z"/>
	<path class="st1" d="M639,583.25c3.81-6.07,6.81-11.48,12.05-21.53c-4.68,8.69-7.56,14.01-10.33,18.74
		C640.17,581.38,639.59,582.31,639,583.25z"/>
	<path class="st1" d="M657.92,519.13c12.77-24.26,20.96-49.46,22.53-74.82c0,0.17,0,0.34-0.01,0.51c-0.51,8.6-1.26,19.83-2.88,31.94
		c1.56-10.16,2.7-21.32,3.04-34.71c-0.73-23.87-6.69-43.86-16.83-60.43c-1.96,28.77-11.79,57.48-27.06,85.22
		C650.58,481.56,657.65,499.31,657.92,519.13z"/>
	<path class="st1" d="M527.35,235.58c27.57,4.8,52.81,13.13,74.06,25.7c-5.18-16.33-14.6-31.5-29-45.01
		c-3.49-3.28-8.35-7.07-12.54-10.13c-1.24-0.82-2.51-1.66-3.81-2.51c-19.62-11.54-41.49-19.31-64.56-23.97
		C512.22,193.44,524.15,212.6,527.35,235.58z"/>
	<path class="st1" d="M183.72,261.69c-2.86,3.61-5.68,7.25-8.04,10.41c-0.63,0.94-1.22,1.82-1.79,2.67c1.42-2,2.91-4.06,4.4-6.09
		C180.01,266.44,181.85,264.07,183.72,261.69z"/>
	<path class="st1" d="M401.74,181.17c-3.57-1.99-7.38-3.6-11.35-4.89c-33.88,3.61-67.11,11.28-96.78,21.08
		c-1.51,2.55-2.02,5.1-1.34,7.53c-22.45,11.4-37.89,13.32-43.33,9.99c-25.43,11.78-45.49,24.67-57.02,36.64
		c-14.7,18.89,3.42,18.4,11.89,17.32c13.65-1.75,27.95-8.06,35.64-11.46c-6.74,8.66-13,17.71-18.81,27.06
		c56.04-26.27,131.77-47.04,204.99-52.58C428.67,210.31,421.83,192.35,401.74,181.17z"/>
	<path class="st1" d="M155.82,304.4c-0.34,0.66-0.68,1.34-1.02,2.02c3.7-6.86,6.19-11.42,8.62-15.55
		C161.02,294.83,158.77,298.84,155.82,304.4z"/>
	<path class="st1" d="M631.51,277.98c-0.96-1.38-2-2.86-3.15-4.51c-0.03-0.04-0.05-0.08-0.08-0.12c4.79,7.3,8.23,12.55,10.94,16.81
		C636.64,285.82,634.03,281.66,631.51,277.98z"/>
	<path class="st1" d="M142.81,332.58c-1.58,4.07-3.14,8.46-4.43,12.14c-0.48,1.42-0.99,2.96-1.55,4.67
		c3.45-9.58,5.59-15.51,7.38-20.14C143.71,330.41,143.25,331.51,142.81,332.58z"/>
	<path class="st1" d="M600.79,240.54c-0.63-0.64-1.3-1.31-2-2.01c-0.63-0.62-1.27-1.25-1.93-1.9c6.38,6.76,10.8,11.44,14.26,15.23
		C607.74,248.05,604.06,243.87,600.79,240.54z"/>
	<path class="st1" d="M565.89,210.32c-0.96-0.69-1.98-1.42-3.08-2.19c-0.81-0.56-1.64-1.13-2.51-1.71c7.82,5.8,13,9.65,17.17,12.92
		C573.76,216.39,569.62,213.07,565.89,210.32z"/>
	<linearGradient id="SVGID_1_" gradientUnits="userSpaceOnUse" x1="699.5098" y1="480.7339" x2="432.819" y2="726.3701">
		<stop  offset="6.060610e-03" style="stop-color:#85F0F4"/>
		<stop  offset="0.1394" style="stop-color:#1FD1E5"/>
		<stop  offset="1" style="stop-color:#0066B3"/>
	</linearGradient>
	<path class="st2" d="M661.86,534.78c4.12-10.99,7.1-20.95,9.69-29.69c0.11-0.41,0.21-0.82,0.32-1.23
		c1.38-5.34,2.61-10.63,3.49-15.28c0.24-1.26,0.47-2.6,0.71-3.94c0.57-3.33,1.07-6.63,1.5-9.87c1.62-12.11,2.37-23.34,2.88-31.94
		c0-0.17,0-0.34,0.01-0.51c-1.57,25.35-9.76,50.56-22.53,74.82c-12.5,23.74-29.39,46.57-48.75,67.73
		c-23.95,26.17-51.69,49.79-79.6,69.42c-15.92,11.2-31.88,21.09-47.24,29.43c0.16-0.19,0.3-0.36,0.47-0.55
		c-31.31,17.08-63.9,25.89-95.72,26.92c0,0.5,0,1.18,0,2c1.42,0.99,5.4,0.54,8.67,0.88c1.45,0.05,2.9,0.09,4.33,0.12
		c-0.24,0.01-0.48,0.04-0.72,0.05c0.34,0.01,0.68,0.02,1.01,0.04c2.21,0.01,4.64-0.02,7.09-0.07c2.33-0.02,4.66-0.06,6.78-0.12
		c0.36-0.01,0.71-0.03,1.07-0.04c0.2,0,0.41-0.01,0.6-0.01c4.03-0.18,9.22-0.58,13.52-0.96c0.17-0.02,0.35-0.04,0.53-0.06
		c0.83-0.06,1.59-0.13,2.32-0.2c3.19-0.34,6.72-0.79,9.56-1.17c0.49-0.07,1.02-0.15,1.57-0.23c0.13-0.02,0.27-0.04,0.4-0.06
		c0.04,0,0.06-0.01,0.1-0.01c3.03-0.45,6.47-1.01,10.15-1.7c0.4-0.08,0.83-0.16,1.27-0.25c0.35-0.06,0.69-0.12,1.01-0.18
		c2.53-0.49,5-1,7.23-1.5c0.87-0.2,1.81-0.42,2.93-0.68c0.11-0.03,0.21-0.05,0.33-0.08c0.99-0.25,2.05-0.52,3.13-0.8
		c2.8-0.71,4.84-1.23,6.46-1.65c2.62-0.71,5.11-1.42,7.56-2.16c0.59-0.18,1.23-0.38,1.96-0.61c0.74-0.23,1.39-0.43,1.98-0.62
		c1.7-0.54,3.53-1.15,5.42-1.8c0.43-0.15,0.9-0.32,1.4-0.5c0.24-0.08,0.47-0.16,0.7-0.23c2.66-0.94,5.23-1.89,7.71-2.84
		c0.07-0.03,0.13-0.05,0.19-0.08c3.52-1.36,4.87-1.89,8.21-3.34c0.53-0.22,1.01-0.42,1.46-0.61c1.91-0.82,3.75-1.64,5.5-2.44
		c0.35-0.16,0.71-0.33,1.11-0.52l5.76-2.75c35.65-17.66,67.89-43.97,95.91-78.17c1.42-1.79,2.79-3.56,4.1-5.29
		c0.27-0.36,0.55-0.72,0.81-1.07l2.13-2.89c2.23-3.23,4.06-5.92,5.67-8.32c1.71-2.62,3.41-5.31,5.02-7.91
		c0.59-0.95,1.16-1.88,1.72-2.79c2.77-4.73,5.65-10.05,10.33-18.74C655.43,550.93,658.93,542.6,661.86,534.78z"/>
	<linearGradient id="SVGID_2_" gradientUnits="userSpaceOnUse" x1="699.5398" y1="482.7062" x2="433.7557" y2="727.5073">
		<stop  offset="6.060610e-03" style="stop-color:#24E4EB"/>
		<stop  offset="0.1394" style="stop-color:#1FD1E5"/>
		<stop  offset="0.6545" style="stop-color:#0066B3"/>
		<stop  offset="1" style="stop-color:#00214D"/>
	</linearGradient>
	<path class="st3" d="M661.86,536.78c4.12-10.99,7.1-20.95,9.69-29.69c0.11-0.41,0.21-0.82,0.32-1.23
		c1.38-5.34,2.61-10.63,3.49-15.28c0.24-1.26,0.47-2.6,0.71-3.94c0.57-3.33,1.07-6.63,1.5-9.87c1.62-12.11,2.37-23.34,2.88-31.94
		c0-0.17,0-0.34,0.01-0.51c-1.57,25.35-9.76,50.56-22.53,74.82c-12.5,23.74-29.39,46.57-48.75,67.73
		c-23.95,26.17-51.69,49.79-79.6,69.42c-15.92,11.2-31.88,21.09-47.24,29.43c0.16-0.19,0.3-0.36,0.47-0.55
		c-31.31,17.08-63.9,25.89-95.72,26.92c2.18,1.25,4.3,2.43,8.67,2.88c1.45,0.05,2.9,0.09,4.33,0.12c-0.24,0.01-0.48,0.04-0.72,0.05
		c0.34,0.01,0.68,0.02,1.01,0.04c2.21,0.01,4.64-0.02,7.09-0.07c2.33-0.02,4.66-0.06,6.78-0.12c0.36-0.01,0.71-0.03,1.07-0.04
		c0.2,0,0.41-0.01,0.6-0.01c4.03-0.18,9.22-0.58,13.52-0.96c0.17-0.02,0.35-0.04,0.53-0.06c0.83-0.06,1.59-0.13,2.32-0.2
		c3.19-0.34,6.72-0.79,9.56-1.17c0.49-0.07,1.02-0.15,1.57-0.23c0.13-0.02,0.27-0.04,0.4-0.06c0.04,0,0.06-0.01,0.1-0.01
		c3.03-0.45,6.47-1.01,10.15-1.7c0.4-0.08,0.83-0.16,1.27-0.25c0.35-0.06,0.69-0.12,1.01-0.18c2.53-0.49,5-1,7.23-1.5
		c0.87-0.2,1.81-0.42,2.93-0.68c0.11-0.03,0.21-0.05,0.33-0.08c0.99-0.25,2.05-0.52,3.13-0.8c2.8-0.71,4.84-1.23,6.46-1.65
		c2.62-0.71,5.11-1.42,7.56-2.16c0.59-0.18,1.23-0.38,1.96-0.61c0.74-0.23,1.39-0.43,1.98-0.62c1.7-0.54,3.53-1.15,5.42-1.8
		c0.43-0.15,0.9-0.32,1.4-0.5c0.24-0.08,0.47-0.16,0.7-0.23c2.66-0.94,5.23-1.89,7.71-2.84c0.07-0.03,0.13-0.05,0.19-0.08
		c3.52-1.36,4.87-1.89,8.21-3.34c0.53-0.22,1.01-0.42,1.46-0.61c1.91-0.82,3.75-1.64,5.5-2.44c0.35-0.16,0.71-0.33,1.11-0.52
		l5.76-2.75c35.65-17.66,67.89-43.97,95.91-78.17c1.42-1.79,2.79-3.56,4.1-5.29c0.27-0.36,0.55-0.72,0.81-1.07l2.13-2.89
		c2.23-3.23,4.06-5.92,5.67-8.32c1.71-2.62,3.41-5.31,5.02-7.91c0.59-0.95,1.16-1.88,1.72-2.79c2.77-4.73,5.65-10.05,10.33-18.74
		C655.43,552.93,658.93,544.6,661.86,536.78z"/>
	<linearGradient id="SVGID_3_" gradientUnits="userSpaceOnUse" x1="650.7311" y1="300.7682" x2="181.4044" y2="717.434">
		<stop  offset="6.060610e-03" style="stop-color:#85F0F4"/>
		<stop  offset="0.1394" style="stop-color:#1FD1E5"/>
		<stop  offset="1" style="stop-color:#0066B3"/>
	</linearGradient>
	<path class="st4" d="M585.35,535.37c20.24-22.34,37.92-46.06,51.37-70.52c15.26-27.74,25.1-56.45,27.06-85.22
		c1.48-21.75-1.53-43.54-10.09-64.98l-0.21-0.43c-3.1-6.38-7.38-14.44-11.17-21.09c-0.93-1.53-1.95-3.15-3.09-4.96
		c-2.71-4.26-6.15-9.51-10.94-16.81c0-0.01-0.01-0.01-0.01-0.02c-2.98-4.1-5.27-7.2-7.4-9.96c-2.2-2.75-4.45-5.46-6.58-7.98
		c-0.98-1.11-2.02-2.28-3.17-3.54c-3.46-3.8-7.87-8.48-14.26-15.23c-0.11-0.12-0.22-0.23-0.34-0.36c-3.62-3.47-6.43-6.14-9.03-8.48
		c-3.03-2.64-6.15-5.24-8.98-7.61c-0.34-0.27-0.69-0.54-1.04-0.82c-4.17-3.27-9.35-7.12-17.17-12.92c-0.44-0.32-0.87-0.65-1.32-0.98
		l-1.23-0.83c0.68,0.48,1.39,0.99,2.11,1.53c4.19,3.06,9.05,6.85,12.54,10.13c14.39,13.52,23.81,28.68,29,45.01
		c6.9,21.76,6.25,45.6-0.28,70.41c-8.12,30.83-25.33,63.17-48.43,94.88c-22.66,31.11-50.99,61.61-81.98,89.51
		c-77.83,70.07-172.43,123.7-236.07,129.1c-13.29-0.19-16.17-1.28-21.41-4.6c1.13,1.02,2.26,2.04,3.39,3.06
		c0.23,0.2,0.45,0.41,0.68,0.61c3.06,2.59,6.32,5.29,9.63,7.97c4.69,3.79,9.4,7.5,13.61,10.74c0.37,0.29,0.77,0.59,1.14,0.88
		c2.58,1.77,4.83,3.3,6.87,4.67c2.57,1.61,5.31,3.32,8.19,5.07c3.11,1.89,6.35,3.81,9.61,5.68c4.08,2.2,8.98,4.73,15.66,8.19
		c0.67,0.34,1.35,0.7,2.06,1.06c1.05,0.47,2.14,0.96,3.27,1.44c3,1.3,6.25,2.65,9.52,3.98c2.63,1.07,5.26,2.11,7.77,3.1
		c1.55,0.6,3.09,1.19,4.56,1.74c0.36,0.14,0.71,0.26,1.06,0.4l0.77,0.2c0.6,0.25,1.21,0.5,1.81,0.75
		c34.02,4.81,116.87-32.27,193.57-90.88C534.44,585.82,561.65,561.54,585.35,535.37z"/>
	<linearGradient id="SVGID_4_" gradientUnits="userSpaceOnUse" x1="663.9053" y1="278.0325" x2="255.4385" y2="690.6956">
		<stop  offset="6.060610e-03" style="stop-color:#24E4EB"/>
		<stop  offset="0.1394" style="stop-color:#1FD1E5"/>
		<stop  offset="0.6545" style="stop-color:#0066B3"/>
		<stop  offset="1" style="stop-color:#00214D"/>
	</linearGradient>
	<path class="st5" d="M585.35,537.37c20.24-22.34,37.92-46.06,51.37-70.52c15.26-27.74,25.1-56.45,27.06-85.22
		c1.48-21.75-1.53-43.54-10.09-64.98l-0.21-0.43c-3.1-6.38-7.38-14.44-11.17-21.09c-0.93-1.53-1.95-3.15-3.09-4.96
		c-2.71-4.26-6.15-9.51-10.94-16.81c0-0.01-0.01-0.01-0.01-0.02c-2.98-4.1-5.27-7.2-7.4-9.96c-2.2-2.75-4.45-5.46-6.58-7.98
		c-0.98-1.11-2.02-2.28-3.17-3.54c-3.46-3.8-7.87-8.48-14.26-15.23c-0.11-0.12-0.22-0.23-0.34-0.36c-3.62-3.47-6.43-6.14-9.03-8.48
		c-3.03-2.64-6.15-5.24-8.98-7.61c-0.34-0.27-0.69-0.54-1.04-0.82c-4.17-3.27-9.35-7.12-17.17-12.92c-0.44-0.32-0.87-0.65-1.32-0.98
		l-1.23-0.83c0.68,0.48,1.39,0.99,2.11,1.53c4.19,3.06,9.05,6.85,12.54,10.13c14.39,13.52,23.81,28.68,29,45.01
		c6.9,21.76,6.25,45.6-0.28,70.41c-8.12,30.83-25.33,63.17-48.43,94.88c-22.66,31.11-50.99,61.61-81.98,89.51
		c-77.83,70.07-172.43,123.7-236.07,129.1c-13.29-0.19-16.17-1.28-21.41-4.6c1.13,1.02,2.26,2.04,3.39,3.06
		c0.23,0.2,0.45,0.41,0.68,0.61c3.06,2.59,6.32,5.29,9.63,7.97c4.69,3.79,9.4,7.5,13.61,10.74c0.37,0.29,0.77,0.59,1.14,0.88
		c2.58,1.77,4.83,3.3,6.87,4.67c2.57,1.61,5.31,3.32,8.19,5.07c3.11,1.89,6.35,3.81,9.61,5.68c4.08,2.2,8.98,4.73,15.66,8.19
		c0.67,0.34,1.35,0.7,2.06,1.06c1.05,0.47,2.14,0.96,3.27,1.44c3,1.3,6.25,2.65,9.52,3.98c2.63,1.07,5.26,2.11,7.77,3.1
		c1.55,0.6,3.09,1.19,4.56,1.74c0.36,0.14,0.71,0.26,1.06,0.4l0.77,0.2c0.6,0.25,1.21,0.5,1.81,0.75
		c34.02,4.81,116.87-32.27,193.57-90.88C534.44,587.82,561.65,563.54,585.35,537.37z"/>
	<linearGradient id="SVGID_5_" gradientUnits="userSpaceOnUse" x1="301.8527" y1="212.4313" x2="142.403" y2="366.8458">
		<stop  offset="6.060610e-03" style="stop-color:#85F0F4"/>
		<stop  offset="0.1394" style="stop-color:#1FD1E5"/>
		<stop  offset="1" style="stop-color:#0066B3"/>
	</linearGradient>
	<path class="st6" d="M241.45,256.38c-7.69,3.39-21.99,9.71-35.64,11.46c-8.47,1.09-26.59,1.57-11.89-17.32
		c-2.51,3.01-5.38,6.58-8.21,10.18c-1.87,2.37-3.7,4.74-5.43,6.99c-1.49,2.04-2.98,4.1-4.4,6.09c-0.5,0.71-0.99,1.41-1.48,2.09
		c-3.85,5.66-6.4,9.6-8.99,14.01c-2.43,4.13-4.92,8.69-8.62,15.55c-0.59,1.09-1.2,2.23-1.86,3.44c-1.63,3.32-2.91,5.95-4.02,8.33
		c-1.28,2.79-2.54,5.69-3.78,8.68c-0.3,0.76-0.61,1.54-0.93,2.37c-1.79,4.63-3.93,10.56-7.38,20.14
		c-3.27,15.07,13.51,17.9,49.9,8.42c44.36-11.67,76.28-26.69,79.69-66.93C269.35,278.9,268.58,245.64,241.45,256.38z"/>
	<linearGradient id="SVGID_6_" gradientUnits="userSpaceOnUse" x1="352.1815" y1="129.2925" x2="97.4349" y2="441.3178">
		<stop  offset="6.060610e-03" style="stop-color:#24E4EB"/>
		<stop  offset="0.1394" style="stop-color:#1FD1E5"/>
		<stop  offset="0.6545" style="stop-color:#0066B3"/>
		<stop  offset="1" style="stop-color:#00214D"/>
	</linearGradient>
	<path class="st7" d="M239.45,257.38c-7.69,3.39-21.99,9.71-35.64,11.46c-8.47,1.09-26.59,1.57-11.89-17.32
		c-2.51,3.01-5.38,6.58-8.21,10.18c-1.87,2.37-3.7,4.74-5.43,6.99c-1.49,2.04-2.98,4.1-4.4,6.09c-0.5,0.71-0.99,1.41-1.48,2.09
		c-3.85,5.66-6.4,9.6-8.99,14.01c-2.43,4.13-4.92,8.69-8.62,15.55c-0.59,1.09-1.2,2.23-1.86,3.44c-1.63,3.32-2.91,5.95-4.02,8.33
		c-1.28,2.79-2.54,5.69-3.78,8.68c-0.3,0.76-0.61,1.54-0.93,2.37c-1.79,4.63-3.93,10.56-7.38,20.14
		c-3.27,15.07,13.51,17.9,49.9,8.42c44.36-11.67,76.28-26.69,79.69-66.93C267.35,279.9,266.58,246.64,239.45,257.38z"/>
	<linearGradient id="SVGID_7_" gradientUnits="userSpaceOnUse" x1="486.3556" y1="166.4431" x2="119.8519" y2="524.5539">
		<stop  offset="6.060610e-03" style="stop-color:#85F0F4"/>
		<stop  offset="0.1394" style="stop-color:#1FD1E5"/>
		<stop  offset="1" style="stop-color:#0066B3"/>
	</linearGradient>
	<path class="st8" d="M511.04,311.86c14.04-28.81,19.5-55.43,16.31-78.28c-3.2-22.97-15.13-42.14-35.86-55.92
		c-18.35-12.2-43.57-20.19-75.75-22.83c-0.31-0.02-0.62-0.03-0.92-0.05c0.19,0.01,0.4,0.01,0.59,0.01c-0.21,0-0.45-0.01-0.67-0.02
		c-0.01,0-0.02,0-0.03,0c-3.94-0.12-8.44-0.18-12.96-0.19c-4.78-0.03-9.56-0.01-13.66,0.09c-0.02,0-0.03,0-0.05,0
		c-0.32,0.01-0.63,0.03-0.94,0.05c-0.61,0.03-1.19,0.06-1.74,0.09c-1.71,0.09-3.62,0.2-5.54,0.34c-3.68,0.27-7.11,0.66-13.76,1.48
		c-1.36,0.15-2.69,0.3-3.93,0.45c-0.6,0.09-1.23,0.18-1.91,0.27c-0.06,0.01-0.12,0.02-0.18,0.03c-0.08,0.01-0.16,0.02-0.24,0.03
		c-4.7,0.7-6.93,1.06-11.1,1.9c-0.15,0.03-0.3,0.05-0.44,0.08c-3.1,0.64-6.97,1.41-9.94,2.09c-0.06,0.01-0.12,0.03-0.18,0.04
		c-0.15,0.04-0.32,0.08-0.48,0.11c-0.05,0.01-0.09,0.02-0.14,0.03c-1.85,0.43-3.2,0.75-4.46,1.06c-1.21,0.31-2.53,0.66-4.23,1.12
		c-0.37,0.1-0.77,0.21-1.18,0.33c-0.57,0.15-1.09,0.29-1.56,0.41c-2.17,0.61-5.05,1.45-8.1,2.4c-0.03,0.01-0.06,0.02-0.09,0.03
		c-2.19,0.68-4.4,1.4-6.43,2.09c-0.65,0.23-1.36,0.48-2.16,0.77c-0.26,0.09-0.52,0.17-0.76,0.26c-3.13,1.12-5.76,2.1-7.95,2.93
		c-0.04,0.02-0.07,0.03-0.11,0.05c-0.1,0.03-0.19,0.07-0.28,0.11c-3.33,1.3-4.75,1.86-7.62,3.11c-0.24,0.1-0.47,0.19-0.69,0.29
		c-2.34,1.03-5.25,2.29-7.46,3.31c-0.01,0-0.01,0-0.01,0.01c-0.01,0-0.01,0-0.02,0.01c-0.46,0.21-0.97,0.45-1.47,0.69
		c-0.89,0.42-1.76,0.84-2.62,1.26c-0.34,0.17-0.68,0.33-1.02,0.5c-19.63,9.77-30.28,19.44-32.16,24.98c-0.82,2.4-0.15,4.3,1.83,5.51
		c5.44,3.33,20.89,1.41,43.33-9.99c-0.69-2.43-0.17-4.98,1.34-7.53c9.65-16.36,60.09-32.99,96.78-21.08
		c3.96,1.29,7.77,2.9,11.35,4.89c20.09,11.18,26.93,29.15,23.89,50.7c-3.88,27.46-23.85,60.74-53.07,93.3
		c-51.3,57.17-131.08,112.09-202.39,129.28c-42.67,8.37-45.45-3.39-46.63-8.41c0.27,6.09,0.69,11.88,1.24,17.42
		c0.09,0.85,0.17,1.69,0.27,2.57c0.02,0.16,0.03,0.33,0.05,0.49c0.14,1.24,0.28,2.5,0.44,3.79c1.38,11.23,4.25,25.56,7.38,37.39
		c0.94,3.4,1.92,6.68,2.94,9.86c0.1,0.3,0.19,0.6,0.29,0.91c1.47,4.54,3.01,8.88,4.58,13.06c3.2,8.48,6.54,16.32,9.77,23.88
		l1.85,3.82c6.54,8.9,20.56,7.55,35.4,6.12c-0.44-1.2-0.85-2.41-1.27-3.62c0.42,1.16,0.85,2.36,1.27,3.62
		c74.3-12.34,162.01-77.62,216.59-123.97c5.98-5.08,11.71-10.15,17.26-15.22C464.08,385.34,493.93,346.97,511.04,311.86z"/>
	<linearGradient id="SVGID_8_" gradientUnits="userSpaceOnUse" x1="486.3556" y1="168.4431" x2="119.8519" y2="526.5539">
		<stop  offset="6.060610e-03" style="stop-color:#24E4EB"/>
		<stop  offset="0.1394" style="stop-color:#1FD1E5"/>
		<stop  offset="0.6545" style="stop-color:#0066B3"/>
		<stop  offset="1" style="stop-color:#00214D"/>
	</linearGradient>
	<path class="st9" d="M511.04,313.86c14.04-28.81,19.5-55.43,16.31-78.28c-3.2-22.97-15.13-42.14-35.86-55.92
		c-18.35-12.2-43.57-20.19-75.75-22.83c-0.31-0.02-0.62-0.03-0.92-0.05c0.19,0.01,0.4,0.01,0.59,0.01c-0.21,0-0.45-0.01-0.67-0.02
		c-0.01,0-0.02,0-0.03,0c-3.94-0.12-8.44-0.18-12.96-0.19c-4.78-0.03-9.56-0.01-13.66,0.09c-0.02,0-0.03,0-0.05,0
		c-0.32,0.01-0.63,0.03-0.94,0.05c-0.61,0.03-1.19,0.06-1.74,0.09c-1.71,0.09-3.62,0.2-5.54,0.34c-3.68,0.27-7.11,0.66-13.76,1.48
		c-1.36,0.15-2.69,0.3-3.93,0.45c-0.6,0.09-1.23,0.18-1.91,0.27c-0.06,0.01-0.12,0.02-0.18,0.03c-0.08,0.01-0.16,0.02-0.24,0.03
		c-4.7,0.7-6.93,1.06-11.1,1.9c-0.15,0.03-0.3,0.05-0.44,0.08c-3.1,0.64-6.97,1.41-9.94,2.09c-0.06,0.01-0.12,0.03-0.18,0.04
		c-0.15,0.04-0.32,0.08-0.48,0.11c-0.05,0.01-0.09,0.02-0.14,0.03c-1.85,0.43-3.2,0.75-4.46,1.06c-1.21,0.31-2.53,0.66-4.23,1.12
		c-0.37,0.1-0.77,0.21-1.18,0.33c-0.57,0.15-1.09,0.29-1.56,0.41c-2.17,0.61-5.05,1.45-8.1,2.4c-0.03,0.01-0.06,0.02-0.09,0.03
		c-2.19,0.68-4.4,1.4-6.43,2.09c-0.65,0.23-1.36,0.48-2.16,0.77c-0.26,0.09-0.52,0.17-0.76,0.26c-3.13,1.12-5.76,2.1-7.95,2.93
		c-0.04,0.02-0.07,0.03-0.11,0.05c-0.1,0.03-0.19,0.07-0.28,0.11c-3.33,1.3-4.75,1.86-7.62,3.11c-0.24,0.1-0.47,0.19-0.69,0.29
		c-2.34,1.03-5.25,2.29-7.46,3.31c-0.01,0-0.01,0-0.01,0.01c-0.01,0-0.01,0-0.02,0.01c-0.46,0.21-0.97,0.45-1.47,0.69
		c-0.89,0.42-1.76,0.84-2.62,1.26c-0.34,0.17-0.68,0.33-1.02,0.5c-19.63,9.77-30.28,19.44-32.16,24.98c-0.82,2.4-0.15,4.3,1.83,5.51
		c5.44,3.33,20.89,1.41,43.33-9.99c-0.69-2.43-0.17-4.98,1.34-7.53c9.65-16.36,60.09-32.99,96.78-21.08
		c3.96,1.29,7.77,2.9,11.35,4.89c20.09,11.18,26.93,29.15,23.89,50.7c-3.88,27.46-23.85,60.74-53.07,93.3
		c-51.3,57.17-131.08,112.09-202.39,129.28c-42.67,8.37-45.45-3.39-46.63-8.41c0.27,6.09,0.69,11.88,1.24,17.42
		c0.09,0.85,0.17,1.69,0.27,2.57c0.02,0.16,0.03,0.33,0.05,0.49c0.14,1.24,0.28,2.5,0.44,3.79c1.38,11.23,4.25,25.56,7.38,37.39
		c0.94,3.4,1.92,6.68,2.94,9.86c0.1,0.3,0.19,0.6,0.29,0.91c1.47,4.54,3.01,8.88,4.58,13.06c3.2,8.48,6.54,16.32,9.77,23.88
		l1.85,3.82c6.54,8.9,20.56,7.55,35.4,6.12c-0.44-1.2-0.85-2.41-1.27-3.62c0.42,1.16,0.85,2.36,1.27,3.62
		c74.3-12.34,162.01-77.62,216.59-123.97c5.98-5.08,11.71-10.15,17.26-15.22C464.08,387.34,493.93,348.97,511.04,313.86z"/>
</g>
<g>
	<text transform="matrix(1 0 0 1 722.2307 448.1563)" class="st10 st11 st12 st13">TerraMar</text>
	<text transform="matrix(1 0 0 1 734.232 565.168)" class="st10 st14 st15">Import</text>
	<text transform="matrix(1 0 0 1 1174.2745 565.168)" class="st10 st14 st15">Export</text>
	<text transform="matrix(1 0 0 1 1118.2703 565.168)" class="st10 st14 st16">&amp;</text>
</g>
</svg>
